<svg width="45" height="45" viewBox="0 0 45 45" fill="none" xmlns="http://www.w3.org/2000/svg">
<path d="M16.875 30.9375C15.5625 30.9375 14.4531 30.4844 13.5469 29.5781C12.6406 28.6719 12.1875 27.5625 12.1875 26.25C12.1875 24.9375 12.6406 23.8281 13.5469 22.9219C14.4531 22.0156 15.5625 21.5625 16.875 21.5625C18.1875 21.5625 19.2969 22.0156 20.2031 22.9219C21.1094 23.8281 21.5625 24.9375 21.5625 26.25C21.5625 27.5625 21.1094 28.6719 20.2031 29.5781C19.2969 30.4844 18.1875 30.9375 16.875 30.9375ZM9.375 41.25C8.34375 41.25 7.46094 40.8828 6.72656 40.1484C5.99219 39.4141 5.625 38.5313 5.625 37.5V11.25C5.625 10.2187 5.99219 9.33594 6.72656 8.60156C7.46094 7.86719 8.34375 7.5 9.375 7.5H11.25V3.75H15V7.5H30V3.75H33.75V7.5H35.625C36.6563 7.5 37.5391 7.86719 38.2734 8.60156C39.0078 9.33594 39.375 10.2187 39.375 11.25V37.5C39.375 38.5313 39.0078 39.4141 38.2734 40.1484C37.5391 40.8828 36.6563 41.25 35.625 41.25H9.375ZM9.375 37.5H35.625V18.75H9.375V37.5Z" fill="white"/>
</svg>
